<svg width="444" height="416" viewBox="0 0 444 416" fill="none" xmlns="http://www.w3.org/2000/svg">
<path opacity="0.85" d="M334.415 86.5708C331.939 83.5154 327.978 82.4969 325.502 84.5339L227.955 155.318C225.479 156.337 222.013 155.318 220.033 152.772C218.052 149.717 218.052 145.643 221.023 143.606L274.995 103.885L325.502 67.2197C327.978 65.1827 328.473 61.1088 326.492 58.0534C324.512 54.9979 320.055 53.9795 317.579 56.0164L222.508 125.273C220.033 126.292 217.062 125.273 215.081 122.727C213.1 119.671 213.1 115.598 216.071 113.561L222.508 108.977C222.508 108.977 223.004 108.977 223.004 108.468L320.055 37.6838C322.531 35.6468 323.026 31.5729 321.045 28.5175C319.065 25.462 315.104 24.4435 312.628 26.4805L255.684 67.729L221.518 92.6817C219.042 94.7187 215.081 93.7002 213.1 90.6448C211.12 87.5893 211.12 83.5154 214.091 81.4784L249.247 55.5072C240.829 40.7392 232.907 26.4805 224.984 11.7125C222.013 6.11088 219.042 0 211.615 0C203.692 0 201.216 6.11088 197.75 11.7125C177.449 47.8686 157.147 84.0246 136.846 120.181C127.933 135.967 119.02 151.754 110.602 167.54C108.621 171.614 107.631 175.179 108.126 178.234C108.126 179.253 108.126 180.271 109.117 181.29C110.602 182.817 112.088 184.854 114.068 186.382L202.702 243.417C204.187 244.435 209.634 248 216.071 248C220.033 248 226.965 245.454 229.936 242.908L269.053 215.918C269.053 215.918 300.744 194.021 310.647 184.345C311.142 183.836 311.637 183.326 312.133 182.817C312.133 182.817 312.133 182.817 312.628 182.308C314.113 180.78 314.608 179.253 314.608 177.725C315.104 175.688 314.608 173.651 313.618 171.105C312.132 167.54 310.647 164.485 308.666 161.429C304.705 154.3 300.744 147.17 296.287 139.532L233.897 185.363C231.421 187.4 227.46 186.382 225.479 183.326C223.499 180.271 223.499 176.197 226.47 174.16L232.412 169.577L333.424 95.7372C336.395 93.7002 336.891 89.6263 334.415 86.5708Z" fill="white"/>
<g opacity="0.85">
<path d="M3.19176 307.424V304.76C3.19176 303.941 3.39124 302.917 3.79021 302.097C3.98969 301.278 4.58815 300.663 4.98712 300.049C5.58557 299.434 6.18403 299.024 6.98197 298.615C7.97939 298.205 8.77733 298 9.57527 298C10.1737 298 10.7722 298.205 11.1711 298.615C11.5701 299.024 11.7696 299.639 11.7696 300.253C11.7696 300.458 11.7696 300.868 11.5701 301.073C11.5701 301.483 11.3706 301.687 11.1711 301.892C10.9717 302.097 10.7722 302.097 10.5727 302.302C10.1737 302.302 9.97424 302.507 9.57527 302.507C9.37578 302.507 8.97681 302.507 8.77733 302.712C8.57784 302.712 8.17887 302.917 8.17887 303.121C7.97939 303.326 7.7799 303.531 7.58042 303.941C7.58042 304.146 7.58042 304.351 7.58042 304.76V307.424H8.97681C9.37578 307.424 9.57527 307.424 9.77475 307.628C9.97424 307.833 10.1737 307.833 10.3732 308.038C10.7722 308.243 10.7722 308.448 10.9717 308.653C11.1711 308.858 11.1711 309.267 11.1711 309.472C11.1711 309.882 11.1711 310.087 10.9717 310.292C10.7722 310.701 10.7722 310.906 10.5727 311.111C10.3732 311.316 10.1737 311.521 9.77475 311.521C9.57527 311.726 9.37578 311.726 8.97681 311.726H7.58042V322.173C7.58042 322.583 7.58042 322.788 7.38094 322.993C7.18145 323.198 7.18145 323.607 6.98197 323.607C6.78248 323.812 6.583 324.017 6.38351 324.017C6.18403 324.222 5.78506 324.222 5.58557 324.222C5.38609 324.222 4.98712 324.222 4.78763 324.017C4.58815 323.812 4.18918 323.812 4.18918 323.607C3.98969 323.402 3.79021 323.198 3.79021 322.993C3.59073 322.788 3.59073 322.378 3.59073 322.173V311.726H2.19433C1.99485 311.726 1.59588 311.726 1.39639 311.521C0.997424 311.521 0.797939 311.316 0.598454 311.111C0.39897 310.906 0.199485 310.701 0.199485 310.496C0 310.087 0 309.882 0 309.472C0 309.062 0 308.858 0.199485 308.653C0.199485 308.448 0.39897 308.243 0.598454 308.038C0.797939 307.833 0.997424 307.628 1.19691 307.628C1.39639 307.424 1.79536 307.424 1.99485 307.424H3.19176Z" fill="white"/>
<path d="M14.363 300.864C14.363 300.455 14.363 300.25 14.5625 299.84C14.7619 299.43 14.7619 299.225 15.1609 299.021C15.3604 298.816 15.5599 298.611 15.9589 298.406C16.1583 298.201 16.5573 298.201 16.9563 298.201C17.3552 298.201 17.5547 298.201 17.9537 298.406C17.9537 298.611 18.1532 298.816 18.3527 299.021C18.5522 299.225 18.7516 299.43 18.9511 299.84C19.1506 300.045 19.1506 300.455 19.1506 300.864C19.1506 301.274 19.1506 301.479 18.9511 301.889C18.7516 302.093 18.7516 302.298 18.3527 302.503C18.1532 302.708 17.9537 302.913 17.7542 303.118C17.3552 303.118 17.1558 303.323 16.7568 303.323C16.3578 303.323 16.1583 303.323 15.7594 303.118C15.5599 302.913 15.3604 302.708 15.1609 302.503C14.9614 302.298 14.7619 302.093 14.5625 301.684C14.363 301.479 14.363 301.069 14.363 300.864ZM18.9511 322.17C18.9511 322.375 18.9511 322.784 18.7516 322.989C18.5522 323.194 18.5522 323.399 18.3527 323.604C18.1532 323.809 17.9537 324.013 17.7542 324.013C17.5547 324.218 17.1558 324.218 16.9563 324.218C16.7568 324.218 16.3578 324.218 16.1583 324.013C15.9589 323.809 15.7594 323.809 15.5599 323.604C15.3604 323.399 15.1609 323.194 15.1609 322.989C14.9614 322.784 14.9614 322.375 14.9614 322.17V307.625C14.9614 307.42 14.9614 307.01 15.1609 306.805C14.9614 306.396 14.9614 306.191 15.3604 305.986C15.5599 305.781 15.7594 305.576 15.9589 305.576C16.1583 305.371 16.5573 305.371 16.7568 305.371C17.1558 305.371 17.3552 305.371 17.5547 305.576C17.9537 305.576 18.1532 305.781 18.3527 305.986C18.5522 306.191 18.7516 306.396 18.7516 306.805C18.9511 307.01 18.9511 307.42 18.9511 307.625V322.17Z" fill="white"/>
<path d="M40.8947 322.171C40.8947 322.581 40.8947 322.786 40.6953 322.99C40.4958 323.195 40.4958 323.4 40.2963 323.605C40.0968 323.81 39.8973 324.015 39.6978 324.015C39.4984 324.22 39.0994 324.22 38.8999 324.22C38.7004 324.22 38.3014 324.22 38.102 324.015C37.9025 323.81 37.5035 323.81 37.304 323.605C37.1045 323.4 36.905 323.195 36.905 322.99C36.7056 322.786 36.7056 322.376 36.7056 322.171V314.591C36.7056 314.386 36.7056 314.386 36.7056 314.386C36.7056 313.772 36.5061 313.157 36.3066 312.543C36.1071 311.928 35.7081 311.518 35.3092 310.904C34.9102 310.494 34.5112 310.084 33.9128 309.88C33.3143 309.675 32.7159 309.47 32.1174 309.47C31.519 309.47 30.721 309.675 30.3221 309.88C29.7236 310.084 29.3246 310.494 28.9257 310.904C28.5267 311.314 28.1277 311.928 27.9282 312.543C27.7288 313.157 27.5293 313.772 27.5293 314.591V322.376C27.5293 322.786 27.5293 322.99 27.3298 323.195C27.1303 323.4 27.1303 323.605 26.9308 323.81C26.7313 324.015 26.5318 324.22 26.3324 324.22C26.1329 324.424 25.7339 324.424 25.5344 324.424C25.3349 324.424 24.936 324.424 24.7365 324.22C24.537 324.015 24.138 324.015 23.9385 323.81C23.7391 323.605 23.5396 323.4 23.5396 323.195C23.3401 322.99 23.3401 322.581 23.3401 322.376V314.591C23.3401 313.362 23.5396 312.133 23.9385 310.904C24.3375 309.675 24.936 308.855 25.9334 307.831C26.7313 307.011 27.7288 306.397 28.7262 305.782C29.9231 305.373 30.9205 304.963 32.3169 304.963C33.5138 304.963 34.7107 305.168 35.9076 305.782C36.905 306.192 37.9025 307.011 38.7004 307.831C39.4984 308.65 40.0968 309.675 40.4958 310.904C40.8947 312.133 41.0942 313.362 41.0942 314.591V322.171H40.8947Z" fill="white"/>
<path d="M43.4874 314.796C43.4874 313.362 43.6869 312.133 44.2853 310.904C44.8838 309.675 45.4822 308.65 46.2802 307.831C47.0781 307.011 48.0755 306.192 49.2724 305.782C50.4693 305.168 51.6662 304.963 52.8631 304.963C54.2595 304.963 55.4564 305.168 56.6534 305.782C57.8503 306.192 58.8477 307.011 59.6456 307.831C60.4436 308.65 61.2415 309.675 61.6405 310.904C62.0394 312.133 62.4384 313.362 62.4384 314.796V321.966C62.4384 322.376 62.4384 322.581 62.2389 322.786C62.0394 322.99 62.0394 323.4 61.84 323.4C61.6405 323.605 61.441 323.81 61.042 323.81C60.8425 324.015 60.4436 324.015 60.2441 324.015C59.6456 324.015 59.2467 323.81 58.8477 323.605C58.4487 323.195 58.2492 322.99 58.0498 322.376C57.2518 322.99 56.4539 323.4 55.6559 323.81C54.858 324.424 53.8606 324.629 53.0626 324.629C51.6662 324.629 50.4693 324.424 49.4719 323.81C48.275 323.195 47.2776 322.581 46.4796 321.761C45.6817 320.942 44.8838 319.918 44.4848 318.688C43.6869 317.459 43.4874 316.23 43.4874 314.796ZM47.876 314.796C47.876 315.616 48.0755 316.23 48.275 316.845C48.4745 317.459 48.8735 318.074 49.4719 318.484C49.8709 318.893 50.4693 319.303 51.0678 319.713C51.6662 319.918 52.4642 320.122 53.0626 320.122C53.8606 320.122 54.459 319.918 55.0575 319.713C55.6559 319.508 56.2544 319.098 56.6534 318.484C57.0523 318.074 57.4513 317.459 57.8503 316.845C58.0498 316.23 58.2492 315.411 58.2492 314.796C58.2492 313.977 58.0498 313.362 57.8503 312.748C57.6508 312.133 57.2518 311.518 56.6534 311.109C56.2544 310.699 55.6559 310.289 55.0575 309.88C54.459 309.675 53.6611 309.47 53.0626 309.47C52.2647 309.47 51.6662 309.675 51.0678 309.88C50.2698 310.289 49.8709 310.699 49.2724 311.109C48.8735 311.518 48.4745 312.133 48.0755 312.748C47.876 313.362 47.876 314.182 47.876 314.796Z" fill="white"/>
<path d="M83.9828 322.171C83.9828 322.581 83.9828 322.786 83.7833 322.99C83.5838 323.195 83.5838 323.4 83.3843 323.605C83.1848 323.81 82.9853 324.015 82.7858 324.015C82.5864 324.22 82.1874 324.22 81.9879 324.22C81.7884 324.22 81.3895 324.22 81.19 324.015C80.9905 323.81 80.5915 323.81 80.392 323.605C80.1925 323.4 79.9931 323.195 79.9931 322.99C79.7936 322.786 79.7936 322.581 79.7936 322.171V314.591V314.386C79.7936 313.772 79.5941 313.157 79.3946 312.543C79.1951 311.928 78.7962 311.518 78.3972 310.904C77.9982 310.494 77.5992 310.084 77.0008 309.88C76.4023 309.675 75.8039 309.47 75.2054 309.47C74.607 309.47 73.809 309.675 73.4101 309.88C72.8116 310.084 72.4126 310.494 72.0137 310.904C71.6147 311.314 71.2157 311.928 71.0162 312.543C70.8168 313.157 70.6173 313.772 70.6173 314.591V322.376C70.6173 322.786 70.6173 322.99 70.4178 323.195C70.2183 323.4 70.2183 323.605 70.0188 323.81C69.8193 324.015 69.6199 324.22 69.4204 324.22C69.2209 324.424 68.8219 324.424 68.6224 324.424C68.423 324.424 68.024 324.424 67.8245 324.22C67.625 324.015 67.226 324.015 67.0266 323.81C66.8271 323.605 66.6276 323.4 66.6276 323.195C66.4281 322.99 66.4281 322.581 66.4281 322.376V314.591C66.4281 313.362 66.6276 312.133 67.0266 310.904C67.4255 309.675 68.024 308.855 68.8219 307.831C69.6199 307.011 70.6173 306.397 71.6147 305.782C72.6121 305.373 73.809 304.963 75.2054 304.963C76.4023 304.963 77.5992 305.168 78.7962 305.782C79.7936 306.192 80.791 307.011 81.5889 307.831C82.3869 308.65 82.9853 309.675 83.3843 310.904C83.7833 312.133 83.9828 313.362 83.9828 314.591V322.171Z" fill="white"/>
<path d="M90.9647 314.8C90.9647 315.414 91.1642 316.029 91.3637 316.644C91.5631 317.258 91.9621 317.873 92.3611 318.282C92.7601 318.692 93.3585 319.102 93.957 319.512C94.5554 319.921 95.1539 319.921 95.9518 319.921C96.7497 319.921 97.3482 319.921 97.9467 319.716C98.5451 319.512 99.1436 319.102 99.5425 318.692C99.742 318.487 100.141 318.282 100.34 318.078C100.739 317.873 100.939 317.873 101.338 317.873C101.537 317.873 101.737 317.873 102.136 318.078C102.335 318.078 102.734 318.282 102.934 318.487C103.133 318.692 103.333 318.897 103.532 319.307C103.732 319.512 103.732 319.921 103.732 320.126C103.732 320.536 103.732 320.741 103.532 320.946C103.333 321.15 103.133 321.56 102.934 321.765C102.136 322.584 101.138 323.199 99.9415 323.814C98.7446 324.223 97.5477 324.428 96.3508 324.428C94.9544 324.428 93.7575 324.223 92.5606 323.609C91.3637 323.199 90.3662 322.38 89.5683 321.56C88.7704 320.741 87.9724 319.716 87.5735 318.487C86.975 317.258 86.7755 316.029 86.7755 314.595C86.7755 313.161 86.975 311.932 87.5735 310.703C88.1719 309.473 88.7704 308.449 89.5683 307.63C90.3662 306.81 91.5631 305.991 92.5606 305.581C93.7575 305.171 94.9544 304.762 96.3508 304.762C97.5477 304.762 98.7446 304.967 99.9415 305.376C101.138 305.786 102.136 306.401 102.934 307.22C103.133 307.425 103.333 307.835 103.532 308.039C103.732 308.244 103.732 308.654 103.732 309.064C103.732 309.473 103.732 309.678 103.532 309.883C103.333 310.088 103.133 310.498 102.934 310.703C102.734 310.907 102.335 311.112 102.136 311.112C101.936 311.112 101.737 311.317 101.537 311.317C101.138 311.317 100.739 311.317 100.54 311.112C100.141 310.907 99.9415 310.703 99.5425 310.498C98.9441 310.293 98.3456 310.088 97.7472 309.883C97.1487 309.678 96.5503 309.678 95.9518 309.678C95.3534 309.678 94.5554 309.883 93.957 310.088C93.3585 310.293 92.7601 310.703 92.3611 311.317C91.9621 311.727 91.5631 312.341 91.1642 312.956C91.1642 313.571 90.9647 314.185 90.9647 314.8Z" fill="white"/>
<path d="M106.725 300.864C106.725 300.455 106.725 300.25 106.924 299.84C107.123 299.635 107.123 299.225 107.522 299.021C107.722 298.816 107.921 298.611 108.32 298.406C108.52 298.201 108.919 298.201 109.318 298.201C109.717 298.201 109.916 298.201 110.315 298.406C110.515 298.611 110.914 298.611 111.113 299.021C111.313 299.225 111.512 299.43 111.712 299.84C111.911 300.045 111.911 300.455 111.911 300.864C111.911 301.274 111.911 301.479 111.712 301.889C111.512 302.093 111.313 302.503 111.113 302.708C110.914 302.913 110.714 303.118 110.315 303.323C110.116 303.528 109.717 303.528 109.318 303.528C108.919 303.528 108.719 303.528 108.32 303.323C108.121 303.118 107.722 303.118 107.522 302.708C107.323 302.503 107.123 302.298 106.924 301.889C106.924 301.479 106.725 301.069 106.725 300.864ZM111.313 322.17C111.313 322.375 111.313 322.784 111.113 322.989C110.914 323.194 110.914 323.399 110.714 323.604C110.515 323.809 110.315 324.013 110.116 324.013C109.916 324.218 109.517 324.218 109.318 324.218C109.118 324.218 108.719 324.218 108.52 324.013C108.32 323.809 107.921 323.809 107.921 323.604C107.722 323.399 107.522 323.194 107.522 322.989C107.323 322.784 107.323 322.375 107.323 322.17V307.625C107.323 307.42 107.323 307.01 107.522 306.805C107.323 306.396 107.522 306.191 107.722 305.986C107.921 305.781 108.121 305.576 108.32 305.576C108.52 305.371 108.919 305.371 109.118 305.371C109.517 305.371 109.717 305.371 109.916 305.576C110.116 305.781 110.315 305.781 110.515 305.986C110.714 306.191 110.914 306.396 110.914 306.6C111.113 306.805 111.113 307.215 111.113 307.42V322.17H111.313Z" fill="white"/>
<path d="M119.292 316.848C119.491 317.258 119.691 317.873 120.09 318.282C120.489 318.692 120.688 319.102 121.087 319.307C121.486 319.512 121.885 319.921 122.484 319.921C122.883 320.126 123.481 320.126 124.08 320.126C125.476 320.126 126.473 319.716 127.271 319.102C127.471 318.897 127.87 318.692 128.069 318.692C128.269 318.692 128.468 318.487 128.867 318.487C129.266 318.487 129.665 318.487 129.865 318.692C130.064 318.897 130.463 319.102 130.663 319.512C130.862 319.716 130.862 319.921 130.862 320.126C130.862 320.331 130.862 320.536 130.862 320.946C130.862 321.15 130.663 321.56 130.663 321.765C130.463 321.97 130.264 322.175 130.064 322.38C129.865 322.584 129.466 322.994 129.067 323.199C128.668 323.404 128.269 323.609 127.87 323.814C127.471 324.018 126.872 324.223 126.274 324.223C125.675 324.428 125.077 324.428 124.279 324.428C122.883 324.428 121.686 324.223 120.489 323.609C119.292 322.994 118.294 322.38 117.497 321.56C116.699 320.741 115.901 319.716 115.502 318.487C114.903 317.258 114.704 316.029 114.704 314.595C114.704 313.161 114.903 311.932 115.502 310.703C116.1 309.473 116.699 308.449 117.497 307.63C118.294 306.81 119.292 305.991 120.489 305.581C121.686 305.171 122.883 304.762 124.279 304.762C125.675 304.762 126.872 304.967 127.87 305.581C129.067 305.991 130.064 306.81 130.862 307.63C131.66 308.449 132.458 309.473 132.857 310.703C133.455 312.137 133.655 313.366 133.655 314.8C133.655 315.414 133.455 316.029 133.056 316.234C132.657 316.644 132.059 316.848 131.46 316.848H119.292ZM129.266 313.161C129.067 312.546 128.867 312.137 128.668 311.727C128.269 311.317 128.069 310.907 127.471 310.498C127.072 310.088 126.473 309.883 126.074 309.678C125.476 309.473 124.877 309.473 124.279 309.473C123.681 309.473 123.082 309.473 122.484 309.678C121.885 309.883 121.486 310.088 121.087 310.498C120.688 310.907 120.289 311.112 119.89 311.727C119.491 312.137 119.292 312.751 119.292 313.161H129.266Z" fill="white"/>
<path d="M140.437 322.17C140.437 322.374 140.437 322.784 140.238 322.989C140.038 323.194 140.038 323.399 139.839 323.604C139.639 323.808 139.44 324.013 139.241 324.013C139.041 324.218 138.642 324.218 138.443 324.218C138.044 324.218 137.844 324.218 137.645 324.013C137.445 323.808 137.046 323.808 136.847 323.604C136.647 323.399 136.448 323.194 136.448 322.989C136.248 322.784 136.248 322.374 136.248 322.17V315.614C136.248 314.18 136.448 312.951 137.046 311.722C137.645 310.493 138.243 309.468 139.241 308.444C140.238 307.42 141.235 306.805 142.432 306.191C143.629 305.576 145.026 305.371 146.222 305.371C147.02 305.371 147.419 305.576 147.818 305.986C148.217 306.395 148.417 307.01 148.417 307.625C148.417 308.034 148.417 308.239 148.217 308.444C148.018 308.649 148.018 308.854 147.818 309.059C147.619 309.263 147.419 309.468 147.02 309.468C146.821 309.673 146.422 309.673 146.222 309.673C145.425 309.673 144.826 309.878 144.028 310.083C143.43 310.288 142.831 310.697 142.233 311.312C141.634 311.927 141.235 312.541 141.036 313.156C140.637 313.77 140.637 314.59 140.637 315.409V322.17H140.437Z" fill="white"/>
<path d="M149.215 314.796C149.215 313.362 149.414 312.133 150.013 310.904C150.611 309.675 151.21 308.65 152.008 307.831C152.806 307.011 153.803 306.192 155 305.782C156.197 305.168 157.394 304.963 158.591 304.963C159.987 304.963 161.184 305.168 162.381 305.782C163.578 306.192 164.575 307.011 165.373 307.831C166.171 308.65 166.969 309.675 167.368 310.904C167.767 312.133 168.166 313.362 168.166 314.796V321.966C168.166 322.376 168.166 322.581 167.967 322.786C167.767 322.99 167.767 323.4 167.568 323.4C167.368 323.605 167.169 323.81 166.77 323.81C166.57 324.015 166.171 324.015 165.972 324.015C165.373 324.015 164.974 323.81 164.575 323.605C164.176 323.195 163.977 322.99 163.777 322.376C162.979 322.99 162.181 323.4 161.384 323.81C160.586 324.424 159.588 324.629 158.591 324.629C157.194 324.629 155.997 324.424 155 323.81C153.803 323.195 152.806 322.581 152.008 321.761C151.21 320.942 150.412 319.918 150.013 318.688C149.414 317.459 149.215 316.23 149.215 314.796ZM153.404 314.796C153.404 315.616 153.604 316.23 153.803 316.845C154.003 317.459 154.402 318.074 155 318.484C155.399 318.893 155.997 319.303 156.596 319.713C157.194 319.918 157.992 320.122 158.591 320.122C159.389 320.122 159.987 319.918 160.586 319.713C161.184 319.508 161.783 319.098 162.181 318.484C162.58 318.074 162.979 317.459 163.378 316.845C163.578 316.23 163.777 315.411 163.777 314.796C163.777 313.977 163.578 313.362 163.378 312.748C163.179 312.133 162.78 311.518 162.181 311.109C161.783 310.699 161.184 310.289 160.586 309.88C159.987 309.675 159.189 309.47 158.591 309.47C157.793 309.47 157.194 309.675 156.596 309.88C155.997 310.084 155.399 310.494 155 311.109C154.601 311.518 154.202 312.133 153.803 312.748C153.604 313.362 153.404 314.182 153.404 314.796Z" fill="white"/>
</g>
<g opacity="0.85">
<path d="M22.5419 341.842C25.5342 341.842 28.3269 342.456 30.9202 343.48C33.5135 344.71 35.7079 346.144 37.7027 348.192C39.6976 350.241 41.094 352.494 42.2909 355.157C43.4878 357.821 43.8868 360.689 43.8868 363.761C43.8868 366.834 43.2883 369.702 42.2909 372.366C41.094 375.029 39.6976 377.282 37.7027 379.331C35.7079 381.379 33.5135 382.813 30.9202 384.042C28.3269 385.272 25.5342 385.681 22.5419 385.681H10.9718V395.924C10.9718 396.539 10.7723 397.153 10.5728 397.768C10.3733 398.383 9.97435 398.997 9.57538 399.407C9.17641 399.817 8.57796 400.226 7.9795 400.431C7.38105 400.636 6.78259 400.841 5.98466 400.841C5.3862 400.841 4.78775 400.636 4.18929 400.431C3.59084 400.226 2.99238 399.817 2.59341 399.407C2.19445 398.997 1.99496 398.383 1.59599 397.768C1.39651 397.153 1.19702 396.539 1.19702 395.924V346.758C1.19702 346.144 1.39651 345.324 1.59599 344.71C1.79548 344.095 2.19445 343.48 2.59341 343.071C2.99238 342.661 3.59084 342.251 4.18929 342.046C4.78775 341.842 5.3862 341.637 5.98466 341.637H22.5419V341.842ZM10.9718 351.88V375.848H22.7414C24.3373 375.848 25.9331 375.438 27.3295 374.824C28.7259 374.209 29.9228 373.39 31.1197 372.161C32.1172 371.136 32.9151 369.907 33.5135 368.473C34.112 367.039 34.3115 365.605 34.3115 363.966C34.3115 362.327 33.9125 360.893 33.3141 359.459C32.7156 358.025 31.9177 356.796 30.9202 355.567C29.9228 354.543 28.7259 353.519 27.3295 352.904C25.9331 352.289 24.3373 351.88 22.7414 351.88H10.9718Z" fill="#F8DC06"/>
<path d="M58.0504 395.922C58.0504 396.537 57.8509 397.151 57.6514 397.766C57.4519 398.38 57.053 398.995 56.654 399.405C56.255 399.814 55.6566 400.224 55.0581 400.429C54.4597 400.634 53.8612 400.839 53.2628 400.839C52.6643 400.839 51.8664 400.634 51.2679 400.429C50.6695 400.224 50.071 399.814 49.672 399.405C49.2731 398.995 48.8741 398.38 48.6746 397.766C48.4751 397.151 48.2756 396.537 48.2756 395.922V380.967C48.2756 377.895 48.8741 374.822 50.071 371.954C51.2679 369.086 52.8638 366.627 54.8586 364.579C56.8535 362.53 59.2473 360.891 62.0401 359.662C64.8329 358.433 67.6257 357.818 70.6179 357.818C72.2138 357.818 73.4107 358.228 74.4081 359.252C75.2061 360.277 75.8045 361.301 75.8045 362.735C75.8045 363.35 75.605 364.169 75.4056 364.784C75.2061 365.398 74.8071 366.013 74.2087 366.422C73.8097 366.832 73.2112 367.242 72.6128 367.447C72.0143 367.652 71.4159 367.856 70.6179 367.856C68.8226 367.856 67.2267 368.266 65.8303 368.881C64.2344 369.495 63.0375 370.52 61.8406 371.544C60.6437 372.773 59.8458 374.002 59.0478 375.641C58.4494 377.28 58.0504 378.919 58.0504 380.763V395.922Z" fill="#F8DC06"/>
<path d="M77.4 379.328C77.4 376.255 77.9985 373.387 79.1954 370.724C80.3923 368.061 81.7887 365.807 83.7835 363.759C85.7784 361.71 87.9727 360.276 90.566 359.047C93.1593 357.818 95.9521 357.408 98.9444 357.408C101.937 357.408 104.729 358.023 107.323 359.047C109.916 360.276 112.11 361.71 114.105 363.759C116.1 365.807 117.496 368.061 118.693 370.724C119.89 373.387 120.289 376.255 120.289 379.328C120.289 382.401 119.691 385.269 118.693 387.932C117.496 390.595 116.1 392.849 114.105 394.897C112.11 396.946 109.916 398.38 107.323 399.609C104.729 400.838 101.937 401.248 98.9444 401.248C95.9521 401.248 93.1593 400.633 90.566 399.609C87.9727 398.38 85.7784 396.946 83.7835 394.897C81.7887 392.849 80.3923 390.595 79.1954 387.932C77.9985 385.269 77.4 382.401 77.4 379.328ZM87.1748 379.328C87.1748 380.967 87.5737 382.401 88.1722 384.04C88.7707 385.474 89.5686 386.703 90.7655 387.932C91.7629 388.956 93.1593 389.981 94.5557 390.595C95.9521 391.21 97.548 391.62 99.1439 391.62C100.74 391.62 102.336 391.21 103.732 390.595C105.128 389.981 106.325 389.161 107.522 387.932C108.52 386.908 109.318 385.474 109.916 384.04C110.514 382.606 110.913 380.967 110.913 379.328C110.913 377.689 110.514 376.05 109.916 374.616C109.318 373.182 108.52 371.953 107.522 370.724C106.525 369.7 105.328 368.88 103.732 368.266C102.336 367.651 100.74 367.241 99.1439 367.241C97.548 367.241 96.1516 367.651 94.5557 368.266C93.1593 368.88 91.9624 369.7 90.7655 370.724C89.7681 371.748 88.7707 372.977 88.1722 374.616C87.3743 376.05 87.1748 377.689 87.1748 379.328Z" fill="#F8DC06"/>
</g>
<g opacity="0.85">
<path d="M132.059 400.841C130.862 400.636 129.665 400.226 128.867 399.202C128.069 398.383 127.67 397.153 127.67 395.719V346.758C127.67 346.144 127.87 345.324 128.069 344.71C128.269 344.095 128.668 343.48 129.067 343.071C129.466 342.661 130.064 342.251 130.663 342.046C131.261 341.842 131.86 341.637 132.658 341.637H164.176C164.775 341.637 165.573 341.842 166.171 342.046C166.769 342.251 167.168 342.661 167.767 343.071C168.166 343.48 168.565 344.095 168.764 344.71C168.964 345.324 169.163 345.939 169.163 346.758C169.163 347.373 168.964 347.987 168.764 348.602C168.565 349.216 168.166 349.831 167.767 350.241C167.368 350.651 166.769 351.06 166.171 351.265C165.573 351.47 164.974 351.675 164.176 351.675H137.246V365.605H157.992C158.591 365.605 159.388 365.81 159.987 366.015C160.585 366.22 160.984 366.629 161.583 367.039C161.982 367.449 162.381 368.064 162.58 368.678C162.78 369.293 162.979 369.907 162.979 370.727C162.979 371.341 162.78 371.956 162.58 372.57C162.381 373.185 161.982 373.595 161.583 374.209C161.184 374.619 160.585 375.029 159.987 375.234C159.388 375.438 158.79 375.643 157.992 375.643H137.246V391.008H163.777C164.376 391.008 165.174 391.213 165.772 391.417C166.37 391.622 166.769 392.032 167.368 392.442C167.767 392.851 168.166 393.466 168.365 394.081C168.565 394.695 168.764 395.31 168.764 396.129C168.764 397.563 168.365 398.792 167.368 399.612C166.37 400.431 165.373 401.046 163.977 401.046H132.059V400.841Z" fill="white"/>
<path d="M184.922 395.927C184.922 397.361 184.523 398.386 183.526 399.41C182.528 400.434 181.531 400.844 180.134 400.844C179.536 400.844 178.938 400.639 178.339 400.434C177.741 400.229 177.142 399.82 176.743 399.41C176.344 399 175.945 398.386 175.546 397.771C175.347 397.156 175.147 396.542 175.147 395.927V374.212C175.147 371.959 175.546 369.705 176.544 367.657C177.342 365.608 178.539 363.764 180.134 362.33C181.73 360.896 183.526 359.667 185.521 358.643C187.515 357.824 189.71 357.209 191.904 357.209C194.298 357.209 196.492 357.619 198.487 358.643C200.482 359.462 202.277 360.896 203.873 362.33C205.469 360.692 207.264 359.462 209.259 358.643C211.254 357.619 213.448 357.209 215.842 357.209C218.037 357.209 220.231 357.619 222.226 358.438C224.221 359.258 226.016 360.487 227.412 361.921C229.008 363.355 230.006 365.198 231.003 367.247C232.001 369.296 232.399 371.344 232.399 373.598V373.803V374.007V395.722C232.399 396.337 232.2 396.952 232.001 397.566C231.801 398.181 231.402 398.59 231.003 399.205C230.604 399.615 230.006 400.024 229.407 400.229C228.809 400.434 228.21 400.639 227.612 400.639C227.013 400.639 226.415 400.434 225.617 400.229C225.019 400.024 224.42 399.615 224.021 399.205C223.622 398.795 223.223 398.181 223.024 397.566C222.824 396.952 222.625 396.337 222.625 395.722V374.212C222.625 373.188 222.425 372.369 222.026 371.549C221.627 370.73 221.029 369.91 220.43 369.501C219.832 368.886 219.034 368.476 218.236 368.067C217.438 367.657 216.441 367.657 215.643 367.657C214.645 367.657 213.847 367.862 212.85 368.271C212.052 368.681 211.254 369.091 210.656 369.705C210.057 370.32 209.459 371.139 209.06 371.959C208.661 372.778 208.461 373.803 208.461 374.622V396.132C208.461 397.566 208.062 398.59 207.065 399.615C206.068 400.639 205.07 401.049 203.674 401.049C203.075 401.049 202.477 400.844 201.878 400.639C201.28 400.434 200.681 400.024 200.282 399.615C199.883 399.205 199.485 398.59 199.086 397.976C198.886 397.361 198.687 396.747 198.687 396.132V374.212C198.687 373.188 198.487 372.369 198.088 371.549C197.689 370.73 197.29 369.91 196.492 369.296C195.894 368.681 195.096 368.271 194.298 367.862C193.5 367.452 192.503 367.452 191.505 367.452C190.508 367.452 189.71 367.657 188.712 368.067C187.914 368.476 187.116 368.886 186.518 369.501C185.92 370.115 185.321 370.935 184.922 371.754C184.523 372.573 184.324 373.393 184.324 374.417V395.927H184.922Z" fill="white"/>
<path d="M240.179 379.33C240.179 376.257 240.778 373.389 241.975 370.726C243.172 368.063 244.568 365.809 246.563 363.761C248.558 361.712 250.752 360.278 253.345 359.049C255.939 357.82 258.732 357.41 261.724 357.41C264.716 357.41 267.509 358.025 270.102 359.049C272.696 360.278 274.89 361.712 276.885 363.761C278.88 365.809 280.276 368.063 281.473 370.726C282.67 373.389 283.069 376.257 283.069 379.33C283.069 382.403 282.47 385.271 281.473 387.934C280.276 390.597 278.88 392.851 276.885 394.899C274.89 396.948 272.696 398.382 270.102 399.611C267.509 400.84 264.716 401.25 261.724 401.25C259.53 401.25 257.535 400.84 255.54 400.226C253.545 399.611 251.75 398.792 249.954 397.562V410.878C249.954 411.698 249.755 412.312 249.555 412.927C249.356 413.541 248.957 414.156 248.558 414.566C248.159 414.975 247.56 415.385 246.962 415.59C246.364 415.795 245.765 416 244.967 416C244.369 416 243.571 415.795 242.972 415.59C242.374 415.385 241.775 414.975 241.376 414.566C240.977 414.156 240.578 413.541 240.379 412.927C240.179 412.312 239.98 411.698 239.98 410.878V379.33H240.179ZM249.954 379.33C249.954 380.969 250.353 382.403 250.952 384.042C251.55 385.476 252.348 386.705 253.545 387.934C254.542 388.958 255.939 389.983 257.335 390.597C258.732 391.212 260.327 391.622 261.923 391.622C263.519 391.622 265.115 391.212 266.512 390.597C267.908 389.983 269.105 389.163 270.302 387.934C271.299 386.91 272.097 385.476 272.696 384.042C273.294 382.608 273.693 380.969 273.693 379.33C273.693 377.691 273.294 376.052 272.696 374.618C272.097 373.184 271.299 371.955 270.302 370.726C269.304 369.702 268.107 368.882 266.512 368.268C265.115 367.653 263.519 367.243 261.923 367.243C260.327 367.243 258.931 367.653 257.335 368.268C255.939 368.882 254.742 369.702 253.545 370.726C252.548 371.75 251.55 372.979 250.952 374.618C250.353 376.052 249.954 377.691 249.954 379.33Z" fill="white"/>
<path d="M298.629 395.924C298.629 396.539 298.429 397.153 298.23 397.768C298.03 398.382 297.631 398.997 297.233 399.407C296.834 399.816 296.235 400.226 295.637 400.431C295.038 400.636 294.44 400.841 293.841 400.841C293.243 400.841 292.445 400.636 291.846 400.431C291.248 400.226 290.65 399.816 290.251 399.407C289.852 398.997 289.453 398.382 289.253 397.768C289.054 397.153 288.854 396.539 288.854 395.924V380.969C288.854 377.896 289.453 374.824 290.65 371.956C291.846 369.088 293.442 366.629 295.437 364.581C297.432 362.532 299.826 360.893 302.619 359.664C305.411 358.435 308.204 357.82 311.196 357.82C312.792 357.82 313.989 358.23 314.987 359.254C315.785 360.279 316.383 361.303 316.383 362.737C316.383 363.351 316.184 364.171 315.984 364.786C315.785 365.4 315.386 366.015 314.787 366.424C314.388 366.834 313.79 367.244 313.191 367.449C312.593 367.654 311.994 367.858 311.196 367.858C309.401 367.858 307.805 368.268 306.409 368.883C304.813 369.497 303.616 370.522 302.419 371.546C301.222 372.775 300.424 374.004 299.626 375.643C299.028 377.282 298.629 378.921 298.629 380.764V395.924Z" fill="white"/>
<path d="M328.95 383.837C329.349 385.066 329.948 386.09 330.546 386.91C331.344 387.934 332.142 388.549 332.94 389.368C333.938 389.983 334.935 390.597 335.932 390.802C337.129 391.212 338.127 391.417 339.523 391.417C342.515 391.417 345.109 390.597 346.705 388.958C347.303 388.549 347.902 388.139 348.5 387.934C349.098 387.729 349.697 387.729 350.096 387.729C350.894 387.729 351.692 387.934 352.29 388.344C352.889 388.754 353.487 389.368 353.886 389.983C354.086 390.392 354.485 391.007 354.485 391.622C354.684 392.236 354.684 392.851 354.485 393.26C354.485 393.875 354.285 394.49 353.886 394.899C353.687 395.514 353.088 395.924 352.689 396.538C352.091 397.153 351.293 397.767 350.495 398.382C349.697 398.996 348.699 399.406 347.503 399.816C346.505 400.226 345.109 400.635 343.912 400.84C342.515 401.045 340.92 401.25 339.324 401.25C336.331 401.25 333.539 400.635 330.945 399.611C328.352 398.587 326.158 396.948 324.163 394.899C322.168 392.851 320.772 390.597 319.575 387.934C318.378 385.271 317.779 382.403 317.779 379.33C317.779 376.257 318.378 373.389 319.575 370.726C320.772 368.063 322.168 365.809 324.163 363.761C326.158 361.712 328.352 360.278 330.945 359.049C333.539 357.82 336.331 357.41 339.324 357.41C342.316 357.41 345.109 358.025 347.702 359.049C350.295 360.278 352.49 361.712 354.485 363.761C356.479 365.809 358.075 368.063 359.073 370.726C360.27 373.389 360.868 376.257 360.868 379.125C360.868 380.559 360.469 381.583 359.472 382.608C358.674 383.427 357.477 383.837 356.08 383.837H328.95ZM351.093 375.643C350.694 374.413 350.295 373.184 349.497 372.16C348.699 371.136 347.902 370.316 346.904 369.497C345.907 368.882 344.71 368.268 343.513 367.858C342.316 367.448 340.92 367.243 339.523 367.243C338.127 367.243 336.93 367.448 335.733 367.858C334.536 368.268 333.339 368.882 332.541 369.497C331.544 370.316 330.746 371.136 330.147 372.16C329.549 373.184 328.95 374.209 328.552 375.438H351.093V375.643Z" fill="white"/>
<path d="M377.426 382.816C376.229 382.202 374.832 381.587 373.436 380.973C372.04 380.358 370.843 379.539 369.646 378.514C368.449 377.49 367.651 376.466 366.853 375.032C366.055 373.598 365.656 372.164 365.656 370.115C365.656 368.271 366.055 366.428 366.853 364.789C367.651 363.15 368.648 361.921 370.045 360.692C371.441 359.667 373.037 358.643 374.832 358.028C376.628 357.414 378.623 357.209 380.817 357.209C382.014 357.209 383.41 357.209 384.807 357.414C386.203 357.619 387.4 358.028 388.597 358.438C389.794 358.848 390.991 359.462 391.789 360.282C392.786 361.101 393.384 361.921 393.983 362.945C394.382 363.969 394.581 364.994 394.382 365.813C394.182 366.837 393.983 367.657 393.384 368.271C392.985 368.681 392.387 369.091 391.988 369.501C391.39 369.705 390.791 369.91 390.193 369.91C389.794 369.91 389.195 369.705 388.597 369.501C387.998 369.091 387.4 368.681 386.801 368.476C386.203 368.067 385.804 367.862 385.206 367.657C384.607 367.452 384.009 367.247 383.41 367.247C382.812 367.042 382.014 367.042 381.415 367.042C379.421 367.042 378.024 367.247 377.027 367.862C376.029 368.476 375.431 369.296 375.431 370.32C375.431 370.935 375.63 371.344 376.029 371.754C376.428 372.164 376.827 372.573 377.625 372.778C378.224 373.188 379.022 373.393 380.019 373.598C381.016 373.803 382.014 374.212 383.011 374.417C384.807 375.032 386.402 375.646 387.998 376.261C389.594 377.08 390.991 377.9 392.188 378.924C393.384 379.948 394.382 381.177 395.18 382.611C395.978 384.045 396.177 385.684 396.177 387.733C396.177 389.577 395.778 391.216 394.98 392.854C394.182 394.493 393.185 395.927 391.789 397.156C390.392 398.386 388.796 399.205 387.001 400.024C385.206 400.639 383.011 401.049 380.817 401.049C379.421 401.049 378.024 400.844 376.428 400.639C374.832 400.434 373.436 400.024 371.84 399.205C370.444 398.59 369.047 397.771 367.85 396.747C366.654 395.722 365.656 394.493 364.858 393.059C364.26 392.035 364.06 391.011 364.06 390.191C364.06 389.372 364.26 388.552 364.659 387.938C365.058 387.323 365.656 386.709 366.255 386.299C366.853 385.889 367.651 385.684 368.449 385.684C369.247 385.684 369.845 385.889 370.643 386.094C371.441 386.504 372.239 386.914 373.037 387.733C373.436 388.143 373.835 388.552 374.433 388.962C375.032 389.372 375.63 389.782 376.229 389.986C376.827 390.396 377.625 390.601 378.423 390.806C379.221 391.011 380.019 391.011 380.817 391.011C381.615 391.011 382.213 391.011 383.011 390.806C383.61 390.601 384.208 390.396 384.807 390.191C385.405 389.782 385.804 389.577 386.004 389.167C386.402 388.757 386.402 388.348 386.402 387.733C386.402 387.118 386.004 386.504 385.405 385.889C384.807 385.275 384.009 384.865 383.011 384.455C382.014 384.045 381.016 383.636 380.019 383.226C379.022 383.431 378.024 383.021 377.426 382.816Z" fill="white"/>
<path d="M400.965 379.33C400.965 376.257 401.563 373.389 402.76 370.726C403.957 368.063 405.353 365.809 407.348 363.761C409.343 361.712 411.537 360.278 414.131 359.049C416.724 357.82 419.517 357.41 422.509 357.41C425.501 357.41 428.294 358.025 430.887 359.049C433.481 360.073 435.675 361.712 437.67 363.761C439.665 365.809 441.061 368.063 442.258 370.726C443.455 373.389 443.854 376.257 443.854 379.33V395.719C443.854 396.333 443.654 397.153 443.455 397.767C443.255 398.382 442.856 398.996 442.457 399.406C442.058 399.816 441.46 400.226 440.862 400.431C440.263 400.635 439.665 400.84 438.867 400.84C437.67 400.84 436.672 400.431 435.874 399.816C435.076 399.201 434.478 398.177 434.279 397.153C432.483 398.382 430.688 399.611 428.693 400.226C426.698 401.045 424.703 401.455 422.509 401.455C419.517 401.455 416.724 400.84 414.131 399.816C411.537 398.587 409.343 397.153 407.348 395.104C405.353 393.056 403.957 390.802 402.76 388.139C401.563 385.271 400.965 382.403 400.965 379.33ZM410.739 379.33C410.739 380.969 411.138 382.403 411.737 384.042C412.335 385.476 413.133 386.705 414.33 387.934C415.327 388.958 416.724 389.983 418.12 390.597C419.517 391.212 421.113 391.622 422.708 391.622C424.304 391.622 425.9 391.212 427.297 390.597C428.693 389.983 429.89 389.163 431.087 387.934C432.084 386.91 432.882 385.476 433.481 384.042C434.079 382.608 434.279 380.969 434.279 379.33C434.279 377.691 433.88 376.052 433.481 374.618C432.882 373.184 432.084 371.955 431.087 370.726C430.089 369.702 428.892 368.882 427.297 368.268C425.9 367.653 424.304 367.243 422.708 367.243C421.113 367.243 419.517 367.653 418.12 368.268C416.724 368.882 415.527 369.702 414.33 370.726C413.333 371.75 412.335 372.979 411.737 374.618C411.138 376.052 410.739 377.691 410.739 379.33Z" fill="white"/>
</g>
</svg>
