<svg width="144" height="30" viewBox="0 0 144 30" fill="none" xmlns="http://www.w3.org/2000/svg">
<path d="M0.805876 2.37931V1.7069C0.805876 1.5 0.856243 1.24138 0.956978 1.03448C1.00735 0.827586 1.15845 0.672414 1.25918 0.517241C1.41028 0.362069 1.56139 0.258621 1.76285 0.155172C2.01469 0.0517241 2.21616 0 2.41763 0C2.56873 0 2.71983 0.0517241 2.82057 0.155172C2.9213 0.258621 2.97167 0.413793 2.97167 0.568965C2.97167 0.62069 2.97167 0.724138 2.9213 0.775862C2.9213 0.87931 2.87093 0.931034 2.82057 0.982759C2.7702 1.03448 2.71983 1.03448 2.66946 1.08621C2.56873 1.08621 2.51836 1.13793 2.41763 1.13793C2.36726 1.13793 2.26653 1.13793 2.21616 1.18966C2.16579 1.18966 2.06506 1.24138 2.06506 1.2931C2.01469 1.34483 1.96432 1.39655 1.91396 1.5C1.91396 1.55172 1.91396 1.60345 1.91396 1.7069V2.37931H2.26653C2.36726 2.37931 2.41763 2.37931 2.468 2.43103C2.51836 2.48276 2.56873 2.48276 2.6191 2.53448C2.71983 2.58621 2.71983 2.63793 2.7702 2.68966C2.82057 2.74138 2.82057 2.84483 2.82057 2.89655C2.82057 3 2.82057 3.05172 2.7702 3.10345C2.71983 3.2069 2.71983 3.25862 2.66946 3.31034C2.6191 3.36207 2.56873 3.41379 2.468 3.41379C2.41763 3.46552 2.36726 3.46552 2.26653 3.46552H1.91396V6.10345C1.91396 6.2069 1.91396 6.25862 1.86359 6.31034C1.81322 6.36207 1.81322 6.46552 1.76285 6.46552C1.71249 6.51724 1.66212 6.56896 1.61175 6.56896C1.56139 6.62069 1.46065 6.62069 1.41028 6.62069C1.35992 6.62069 1.25918 6.62069 1.20881 6.56896C1.15845 6.51724 1.05771 6.51724 1.05771 6.46552C1.00735 6.41379 0.956978 6.36207 0.956978 6.31034C0.906611 6.25862 0.906611 6.15517 0.906611 6.10345V3.46552H0.55404C0.503673 3.46552 0.402938 3.46552 0.352571 3.41379C0.251836 3.41379 0.201469 3.36207 0.151102 3.31034C0.100735 3.25862 0.0503673 3.2069 0.0503673 3.15517C0 3.05172 0 3 0 2.89655C0 2.7931 0 2.74138 0.0503673 2.68966C0.0503673 2.63793 0.100735 2.58621 0.151102 2.53448C0.201469 2.48276 0.251836 2.43103 0.302204 2.43103C0.352571 2.37931 0.453305 2.37931 0.503673 2.37931H0.805876Z" fill="#308E45"/>
<path d="M3.62695 0.724156C3.62695 0.620708 3.62695 0.568984 3.67732 0.465536C3.72769 0.362087 3.72769 0.310363 3.82842 0.258639C3.87879 0.206915 3.92916 0.155191 4.02989 0.103467C4.08026 0.0517426 4.18099 0.0517426 4.28173 0.0517426C4.38246 0.0517426 4.43283 0.0517426 4.53356 0.103467C4.53356 0.155191 4.58393 0.206915 4.6343 0.258639C4.68467 0.310363 4.73503 0.362087 4.7854 0.465536C4.83577 0.51726 4.83577 0.620708 4.83577 0.724156C4.83577 0.827605 4.83577 0.879329 4.7854 0.982777C4.73503 1.0345 4.73503 1.08623 4.6343 1.13795C4.58393 1.18967 4.53356 1.2414 4.4832 1.29312C4.38246 1.29312 4.33209 1.34485 4.23136 1.34485C4.13063 1.34485 4.08026 1.34485 3.97952 1.29312C3.92916 1.2414 3.87879 1.18967 3.82842 1.13795C3.77805 1.08623 3.72769 1.0345 3.67732 0.931053C3.62695 0.879329 3.62695 0.77588 3.62695 0.724156ZM4.7854 6.10347C4.7854 6.15519 4.7854 6.25864 4.73503 6.31036C4.68467 6.36209 4.68467 6.41381 4.6343 6.46554C4.58393 6.51726 4.53356 6.56898 4.4832 6.56898C4.43283 6.62071 4.33209 6.62071 4.28173 6.62071C4.23136 6.62071 4.13063 6.62071 4.08026 6.56898C4.02989 6.51726 3.97952 6.51726 3.92916 6.46554C3.87879 6.41381 3.82842 6.36209 3.82842 6.31036C3.77805 6.25864 3.77806 6.15519 3.77806 6.10347V2.43105C3.77806 2.37933 3.77805 2.27588 3.82842 2.22416C3.77805 2.12071 3.77805 2.06898 3.87879 2.01726C3.92916 1.96554 3.97952 1.91381 4.02989 1.91381C4.08026 1.86209 4.18099 1.86209 4.23136 1.86209C4.33209 1.86209 4.38246 1.86209 4.43283 1.91381C4.53356 1.91381 4.58393 1.96554 4.6343 2.01726C4.68467 2.06898 4.73503 2.12071 4.73503 2.22416C4.7854 2.27588 4.7854 2.37933 4.7854 2.43105V6.10347Z" fill="#308E45"/>
<path d="M10.3249 6.10343C10.3249 6.20688 10.3249 6.25861 10.2745 6.31033C10.2242 6.36205 10.2242 6.41378 10.1738 6.4655C10.1234 6.51723 10.0731 6.56895 10.0227 6.56895C9.97233 6.62067 9.87159 6.62067 9.82122 6.62067C9.77086 6.62067 9.67012 6.62067 9.61976 6.56895C9.56939 6.51723 9.46865 6.51723 9.41829 6.4655C9.36792 6.41378 9.31755 6.36205 9.31755 6.31033C9.26718 6.25861 9.26718 6.15516 9.26718 6.10343V4.18964C9.26718 4.13792 9.26718 4.13792 9.26718 4.13792C9.26718 3.98274 9.21682 3.82757 9.16645 3.6724C9.11608 3.51723 9.01535 3.41378 8.91461 3.25861C8.81388 3.15516 8.71314 3.05171 8.56204 2.99999C8.41094 2.94826 8.25984 2.89654 8.10874 2.89654C7.95764 2.89654 7.75617 2.94826 7.65543 2.99999C7.50433 3.05171 7.4036 3.15516 7.30286 3.25861C7.20213 3.36205 7.10139 3.51723 7.05103 3.6724C7.00066 3.82757 6.95029 3.98274 6.95029 4.18964V6.15516C6.95029 6.25861 6.95029 6.31033 6.89992 6.36205C6.84956 6.41378 6.84956 6.4655 6.79919 6.51723C6.74882 6.56895 6.69845 6.62067 6.64809 6.62067C6.59772 6.6724 6.49699 6.6724 6.44662 6.6724C6.39625 6.6724 6.29552 6.6724 6.24515 6.62067C6.19478 6.56895 6.09405 6.56895 6.04368 6.51723C5.99331 6.4655 5.94295 6.41378 5.94295 6.36205C5.89258 6.31033 5.89258 6.20688 5.89258 6.15516V4.18964C5.89258 3.8793 5.94295 3.56895 6.04368 3.25861C6.14441 2.94826 6.29552 2.74136 6.54735 2.48274C6.74882 2.27585 7.00066 2.12067 7.25249 1.9655C7.5547 1.86205 7.80653 1.75861 8.15911 1.75861C8.46131 1.75861 8.76351 1.81033 9.06572 1.9655C9.31755 2.06895 9.56939 2.27585 9.77086 2.48274C9.97233 2.68964 10.1234 2.94826 10.2242 3.25861C10.3249 3.56895 10.3753 3.8793 10.3753 4.18964V6.10343H10.3249Z" fill="#308E45"/>
<path d="M10.9805 4.24136C10.9805 3.8793 11.0308 3.56895 11.1819 3.25861C11.333 2.94826 11.4841 2.68964 11.6856 2.48274C11.8871 2.27585 12.1389 2.06895 12.4411 1.9655C12.7433 1.81033 13.0455 1.75861 13.3477 1.75861C13.7003 1.75861 14.0025 1.81033 14.3047 1.9655C14.6069 2.06895 14.8587 2.27585 15.0602 2.48274C15.2617 2.68964 15.4632 2.94826 15.5639 3.25861C15.6646 3.56895 15.7654 3.8793 15.7654 4.24136V6.05171C15.7654 6.15516 15.7654 6.20688 15.715 6.25861C15.6646 6.31033 15.6646 6.41378 15.6143 6.41378C15.5639 6.4655 15.5135 6.51723 15.4128 6.51723C15.3624 6.56895 15.2617 6.56895 15.2113 6.56895C15.0602 6.56895 14.9595 6.51723 14.8587 6.4655C14.758 6.36205 14.7076 6.31033 14.6573 6.15516C14.4558 6.31033 14.2543 6.41378 14.0529 6.51723C13.8514 6.6724 13.5996 6.72412 13.3981 6.72412C13.0455 6.72412 12.7433 6.6724 12.4915 6.51723C12.1893 6.36205 11.9374 6.20688 11.736 5.99999C11.5345 5.79309 11.333 5.53447 11.2323 5.22412C11.0308 4.91378 10.9805 4.60343 10.9805 4.24136ZM12.0885 4.24136C12.0885 4.44826 12.1389 4.60343 12.1893 4.75861C12.2397 4.91378 12.3404 5.06895 12.4915 5.1724C12.5922 5.27585 12.7433 5.3793 12.8944 5.48274C13.0455 5.53447 13.247 5.58619 13.3981 5.58619C13.5996 5.58619 13.7507 5.53447 13.9018 5.48274C14.0529 5.43102 14.204 5.32757 14.3047 5.1724C14.4054 5.06895 14.5062 4.91378 14.6069 4.75861C14.6573 4.60343 14.7076 4.39654 14.7076 4.24136C14.7076 4.03447 14.6573 3.8793 14.6069 3.72412C14.5565 3.56895 14.4558 3.41378 14.3047 3.31033C14.204 3.20688 14.0529 3.10343 13.9018 2.99999C13.7507 2.94826 13.5492 2.89654 13.3981 2.89654C13.1966 2.89654 13.0455 2.94826 12.8944 2.99999C12.693 3.10343 12.5922 3.20688 12.4411 3.31033C12.3404 3.41378 12.2397 3.56895 12.1389 3.72412C12.0885 3.8793 12.0885 4.08619 12.0885 4.24136Z" fill="#308E45"/>
<path d="M21.2048 6.10343C21.2048 6.20688 21.2048 6.25861 21.1544 6.31033C21.104 6.36205 21.104 6.41378 21.0537 6.4655C21.0033 6.51723 20.9529 6.56895 20.9026 6.56895C20.8522 6.62067 20.7515 6.62067 20.7011 6.62067C20.6507 6.62067 20.55 6.62067 20.4996 6.56895C20.4493 6.51723 20.3485 6.51723 20.2982 6.4655C20.2478 6.41378 20.1974 6.36205 20.1974 6.31033C20.1471 6.25861 20.1471 6.20688 20.1471 6.10343V4.18964V4.13792C20.1471 3.98274 20.0967 3.82757 20.0463 3.6724C19.996 3.51723 19.8952 3.41378 19.7945 3.25861C19.6938 3.15516 19.593 3.05171 19.4419 2.99999C19.2908 2.94826 19.1397 2.89654 18.9886 2.89654C18.8375 2.89654 18.636 2.94826 18.5353 2.99999C18.3842 3.05171 18.2835 3.15516 18.1827 3.25861C18.082 3.36205 17.9813 3.51723 17.9309 3.6724C17.8805 3.82757 17.8302 3.98274 17.8302 4.18964V6.15516C17.8302 6.25861 17.8302 6.31033 17.7798 6.36205C17.7294 6.41378 17.7294 6.4655 17.6791 6.51723C17.6287 6.56895 17.5783 6.62067 17.528 6.62067C17.4776 6.6724 17.3769 6.6724 17.3265 6.6724C17.2761 6.6724 17.1754 6.6724 17.125 6.62067C17.0747 6.56895 16.9739 6.56895 16.9236 6.51723C16.8732 6.4655 16.8228 6.41378 16.8228 6.36205C16.7725 6.31033 16.7725 6.20688 16.7725 6.15516V4.18964C16.7725 3.8793 16.8228 3.56895 16.9236 3.25861C17.0243 2.94826 17.1754 2.74136 17.3769 2.48274C17.5783 2.27585 17.8302 2.12067 18.082 1.9655C18.3338 1.86205 18.6361 1.75861 18.9886 1.75861C19.2908 1.75861 19.593 1.81033 19.8952 1.9655C20.1471 2.06895 20.3989 2.27585 20.6004 2.48274C20.8018 2.68964 20.9529 2.94826 21.0537 3.25861C21.1544 3.56895 21.2048 3.8793 21.2048 4.18964V6.10343Z" fill="#308E45"/>
<path d="M22.9679 4.24136C22.9679 4.39653 23.0182 4.55171 23.0686 4.70688C23.119 4.86205 23.2197 5.01722 23.3204 5.12067C23.4212 5.22412 23.5723 5.32757 23.7234 5.43102C23.8745 5.53447 24.0256 5.53447 24.227 5.53447C24.4285 5.53447 24.5796 5.53447 24.7307 5.48274C24.8818 5.43102 25.0329 5.32757 25.1337 5.22412C25.184 5.1724 25.2848 5.12067 25.3351 5.06895C25.4359 5.01722 25.4862 5.01722 25.587 5.01722C25.6373 5.01722 25.6877 5.01722 25.7884 5.06895C25.8388 5.06895 25.9395 5.12067 25.9899 5.1724C26.0403 5.22412 26.0906 5.27584 26.141 5.37929C26.1914 5.43102 26.1914 5.53447 26.1914 5.58619C26.1914 5.68964 26.1914 5.74136 26.141 5.79309C26.0906 5.84481 26.0403 5.94826 25.9899 5.99998C25.7884 6.20688 25.5366 6.36205 25.2344 6.51722C24.9322 6.62067 24.63 6.6724 24.3278 6.6724C23.9752 6.6724 23.673 6.62067 23.3708 6.4655C23.0686 6.36205 22.8168 6.15515 22.6153 5.94826C22.4138 5.74136 22.2124 5.48274 22.1116 5.1724C21.9605 4.86205 21.9102 4.55171 21.9102 4.18964C21.9102 3.82757 21.9605 3.51722 22.1116 3.20688C22.2627 2.89653 22.4138 2.63791 22.6153 2.43102C22.8168 2.22412 23.119 2.01722 23.3708 1.91378C23.673 1.81033 23.9752 1.70688 24.3278 1.70688C24.63 1.70688 24.9322 1.7586 25.2344 1.86205C25.5366 1.9655 25.7884 2.12067 25.9899 2.32757C26.0403 2.37929 26.0906 2.48274 26.141 2.53447C26.1914 2.58619 26.1914 2.68964 26.1914 2.79309C26.1914 2.89653 26.1914 2.94826 26.141 2.99998C26.0906 3.05171 26.0403 3.15515 25.9899 3.20688C25.9395 3.2586 25.8388 3.31033 25.7884 3.31033C25.7381 3.31033 25.6877 3.36205 25.6373 3.36205C25.5366 3.36205 25.4359 3.36205 25.3855 3.31033C25.2848 3.2586 25.2344 3.20688 25.1337 3.15515C24.9826 3.10343 24.8315 3.05171 24.6804 2.99998C24.5293 2.94826 24.3782 2.94826 24.227 2.94826C24.0759 2.94826 23.8745 2.99998 23.7234 3.05171C23.5723 3.10343 23.4212 3.20688 23.3204 3.36205C23.2197 3.4655 23.119 3.62067 23.0182 3.77584C23.0182 3.93102 22.9679 4.08619 22.9679 4.24136Z" fill="#308E45"/>
<path d="M26.9463 0.724156C26.9463 0.620708 26.9463 0.568984 26.9967 0.465536C27.047 0.413811 27.047 0.310363 27.1478 0.258639C27.1981 0.206915 27.2485 0.155191 27.3492 0.103467C27.3996 0.0517426 27.5003 0.0517426 27.6011 0.0517426C27.7018 0.0517426 27.7522 0.0517426 27.8529 0.103467C27.9033 0.155191 28.004 0.155191 28.0544 0.258639C28.1047 0.310363 28.1551 0.362087 28.2055 0.465536C28.2558 0.51726 28.2558 0.620708 28.2558 0.724156C28.2558 0.827605 28.2558 0.879329 28.2055 0.982777C28.1551 1.0345 28.1047 1.13795 28.0544 1.18967C28.004 1.2414 27.9536 1.29312 27.8529 1.34485C27.8025 1.39657 27.7018 1.39657 27.6011 1.39657C27.5003 1.39657 27.45 1.39657 27.3492 1.34485C27.2989 1.29312 27.1981 1.29312 27.1478 1.18967C27.0974 1.13795 27.047 1.08623 26.9967 0.982777C26.9967 0.879329 26.9463 0.77588 26.9463 0.724156ZM28.1047 6.10347C28.1047 6.15519 28.1047 6.25864 28.0544 6.31036C28.004 6.36209 28.004 6.41381 27.9536 6.46554C27.9033 6.51726 27.8529 6.56898 27.8025 6.56898C27.7522 6.62071 27.6514 6.62071 27.6011 6.62071C27.5507 6.62071 27.45 6.62071 27.3996 6.56898C27.3492 6.51726 27.2485 6.51726 27.2485 6.46554C27.1981 6.41381 27.1478 6.36209 27.1478 6.31036C27.0974 6.25864 27.0974 6.15519 27.0974 6.10347V2.43105C27.0974 2.37933 27.0974 2.27588 27.1478 2.22416C27.0974 2.12071 27.1478 2.06898 27.1981 2.01726C27.2485 1.96554 27.2989 1.91381 27.3492 1.91381C27.3996 1.86209 27.5003 1.86209 27.5507 1.86209C27.6514 1.86209 27.7018 1.86209 27.7522 1.91381C27.8025 1.96554 27.8529 1.96554 27.9033 2.01726C27.9536 2.06898 28.004 2.12071 28.004 2.17243C28.0544 2.22416 28.0544 2.3276 28.0544 2.37933V6.10347H28.1047Z" fill="#308E45"/>
<path d="M30.1194 4.7586C30.1698 4.86205 30.2201 5.01722 30.3209 5.12067C30.4216 5.22412 30.472 5.32757 30.5727 5.37929C30.6734 5.43102 30.7742 5.53447 30.9253 5.53447C31.026 5.58619 31.1771 5.58619 31.3282 5.58619C31.6808 5.58619 31.9326 5.48274 32.1341 5.32757C32.1844 5.27584 32.2852 5.22412 32.3355 5.22412C32.3859 5.22412 32.4363 5.1724 32.537 5.1724C32.6377 5.1724 32.7385 5.1724 32.7888 5.22412C32.8392 5.27584 32.94 5.32757 32.9903 5.43102C33.0407 5.48274 33.0407 5.53447 33.0407 5.58619C33.0407 5.63791 33.0407 5.68964 33.0407 5.79309C33.0407 5.84481 32.9903 5.94826 32.9903 5.99998C32.94 6.05171 32.8896 6.10343 32.8392 6.15515C32.7888 6.20688 32.6881 6.31033 32.5874 6.36205C32.4866 6.41378 32.3859 6.4655 32.2852 6.51722C32.1844 6.56895 32.0333 6.62067 31.8822 6.62067C31.7311 6.6724 31.58 6.6724 31.3786 6.6724C31.026 6.6724 30.7238 6.62067 30.4216 6.4655C30.1194 6.31033 29.8675 6.15515 29.6661 5.94826C29.4646 5.74136 29.2631 5.48274 29.1624 5.1724C29.0113 4.86205 28.9609 4.55171 28.9609 4.18964C28.9609 3.82757 29.0113 3.51722 29.1624 3.20688C29.3135 2.89653 29.4646 2.63791 29.6661 2.43102C29.8675 2.22412 30.1194 2.01722 30.4216 1.91378C30.7238 1.81033 31.026 1.70688 31.3786 1.70688C31.7311 1.70688 32.0333 1.7586 32.2852 1.91378C32.5874 2.01722 32.8392 2.22412 33.0407 2.43102C33.2422 2.63791 33.4436 2.89653 33.5444 3.20688C33.6955 3.56895 33.7458 3.87929 33.7458 4.24136C33.7458 4.39653 33.6955 4.55171 33.5947 4.60343C33.494 4.70688 33.3429 4.7586 33.1918 4.7586H30.1194ZM32.6378 3.82757C32.5874 3.6724 32.537 3.56895 32.4866 3.4655C32.3859 3.36205 32.3355 3.2586 32.1844 3.15515C32.0837 3.05171 31.9326 2.99998 31.8319 2.94826C31.6808 2.89653 31.5297 2.89653 31.3786 2.89653C31.2275 2.89653 31.0764 2.89653 30.9253 2.94826C30.7742 2.99998 30.6734 3.05171 30.5727 3.15515C30.472 3.2586 30.3712 3.31033 30.2705 3.4655C30.1698 3.56895 30.1194 3.72412 30.1194 3.82757H32.6378Z" fill="#308E45"/>
<path d="M35.4581 6.10346C35.4581 6.15518 35.4581 6.25863 35.4077 6.31035C35.3574 6.36208 35.3574 6.4138 35.307 6.46552C35.2566 6.51725 35.2063 6.56897 35.1559 6.56897C35.1055 6.6207 35.0048 6.6207 34.9544 6.6207C34.8537 6.6207 34.8033 6.6207 34.753 6.56897C34.7026 6.51725 34.6019 6.51725 34.5515 6.46552C34.5011 6.4138 34.4508 6.36208 34.4508 6.31035C34.4004 6.25863 34.4004 6.15518 34.4004 6.10346V4.44828C34.4004 4.08621 34.4508 3.77587 34.6019 3.46552C34.753 3.15518 34.9041 2.89656 35.1559 2.63794C35.4077 2.37932 35.6596 2.22414 35.9618 2.06897C36.264 1.9138 36.6166 1.86208 36.9188 1.86208C37.1202 1.86208 37.221 1.9138 37.3217 2.01725C37.4224 2.1207 37.4728 2.27587 37.4728 2.43104C37.4728 2.53449 37.4728 2.58621 37.4224 2.63794C37.3721 2.68966 37.3721 2.74139 37.3217 2.79311C37.2713 2.84483 37.221 2.89656 37.1202 2.89656C37.0699 2.94828 36.9691 2.94828 36.9188 2.94828C36.7173 2.94828 36.5662 3.00001 36.3647 3.05173C36.2136 3.10346 36.0625 3.2069 35.9114 3.36208C35.7603 3.51725 35.6596 3.67242 35.6092 3.82759C35.5085 3.98277 35.5085 4.18966 35.5085 4.39656V6.10346H35.4581Z" fill="#308E45"/>
<path d="M37.6748 4.24136C37.6748 3.8793 37.7252 3.56895 37.8763 3.25861C38.0274 2.94826 38.1785 2.68964 38.3799 2.48274C38.5814 2.27585 38.8332 2.06895 39.1355 1.9655C39.4377 1.81033 39.7399 1.75861 40.0421 1.75861C40.3946 1.75861 40.6968 1.81033 40.999 1.9655C41.3012 2.06895 41.5531 2.27585 41.7546 2.48274C41.956 2.68964 42.1575 2.94826 42.2582 3.25861C42.359 3.56895 42.4597 3.8793 42.4597 4.24136V6.05171C42.4597 6.15516 42.4597 6.20688 42.4093 6.25861C42.359 6.31033 42.359 6.41378 42.3086 6.41378C42.2582 6.4655 42.2079 6.51723 42.1071 6.51723C42.0568 6.56895 41.956 6.56895 41.9057 6.56895C41.7545 6.56895 41.6538 6.51723 41.5531 6.4655C41.4523 6.36205 41.402 6.31033 41.3516 6.15516C41.1501 6.31033 40.9487 6.41378 40.7472 6.51723C40.5457 6.6724 40.2939 6.72412 40.0421 6.72412C39.6895 6.72412 39.3873 6.6724 39.1355 6.51723C38.8332 6.36205 38.5814 6.20688 38.3799 5.99999C38.1785 5.79309 37.977 5.53447 37.8763 5.22412C37.7252 4.91378 37.6748 4.60343 37.6748 4.24136ZM38.7325 4.24136C38.7325 4.44826 38.7829 4.60343 38.8332 4.75861C38.8836 4.91378 38.9844 5.06895 39.1355 5.1724C39.2362 5.27585 39.3873 5.3793 39.5384 5.48274C39.6895 5.53447 39.891 5.58619 40.0421 5.58619C40.2435 5.58619 40.3946 5.53447 40.5457 5.48274C40.6968 5.43102 40.8479 5.32757 40.9487 5.1724C41.0494 5.06895 41.1501 4.91378 41.2509 4.75861C41.3012 4.60343 41.3516 4.39654 41.3516 4.24136C41.3516 4.03447 41.3012 3.8793 41.2509 3.72412C41.2005 3.56895 41.0998 3.41378 40.9487 3.31033C40.8479 3.20688 40.6968 3.10343 40.5457 2.99999C40.3946 2.94826 40.1932 2.89654 40.0421 2.89654C39.8406 2.89654 39.6895 2.94826 39.5384 2.99999C39.3873 3.05171 39.2362 3.15516 39.1355 3.31033C39.0347 3.41378 38.934 3.56895 38.8332 3.72412C38.7829 3.8793 38.7325 4.08619 38.7325 4.24136Z" fill="#308E45"/>
<path d="M5.69105 11.0689C6.44656 11.0689 7.1517 11.2241 7.80648 11.4827C8.46125 11.7931 9.01529 12.1551 9.51897 12.6724C10.0226 13.1896 10.3752 13.7586 10.6774 14.431C10.9796 15.1034 11.0804 15.8276 11.0804 16.6034C11.0804 17.3793 10.9292 18.1034 10.6774 18.7758C10.3752 19.4482 10.0226 20.0172 9.51897 20.5345C9.01529 21.0517 8.46125 21.4138 7.80648 21.7241C7.1517 22.0345 6.44656 22.1379 5.69105 22.1379H2.76975V24.7241C2.76975 24.8793 2.71939 25.0345 2.66902 25.1896C2.61865 25.3448 2.51792 25.5 2.41718 25.6034C2.31645 25.7069 2.16535 25.8103 2.01424 25.862C1.86314 25.9138 1.71204 25.9655 1.51057 25.9655C1.35947 25.9655 1.20837 25.9138 1.05727 25.862C0.906165 25.8103 0.755063 25.7069 0.654329 25.6034C0.553594 25.5 0.503227 25.3448 0.402492 25.1896C0.352125 25.0345 0.301758 24.8793 0.301758 24.7241V12.3103C0.301758 12.1551 0.352125 11.9482 0.402492 11.7931C0.45286 11.6379 0.553594 11.4827 0.654329 11.3793C0.755063 11.2758 0.906165 11.1724 1.05727 11.1207C1.20837 11.0689 1.35947 11.0172 1.51057 11.0172H5.69105V11.0689ZM2.76975 13.6034V19.6551H5.74142C6.14436 19.6551 6.5473 19.5517 6.89987 19.3965C7.25244 19.2414 7.55464 19.0345 7.85685 18.7241C8.10868 18.4655 8.31015 18.1551 8.46125 17.7931C8.61236 17.431 8.66272 17.0689 8.66272 16.6551C8.66272 16.2414 8.56199 15.8793 8.41089 15.5172C8.25979 15.1551 8.05832 14.8448 7.80648 14.5345C7.55464 14.2758 7.25244 14.0172 6.89987 13.862C6.5473 13.7069 6.14436 13.6034 5.74142 13.6034H2.76975Z" fill="#F8DC06"/>
<path d="M14.6565 24.7241C14.6565 24.8793 14.6061 25.0344 14.5557 25.1896C14.5054 25.3448 14.4046 25.5 14.3039 25.6034C14.2032 25.7069 14.0521 25.8103 13.901 25.862C13.7499 25.9138 13.5988 25.9655 13.4477 25.9655C13.2966 25.9655 13.0951 25.9138 12.944 25.862C12.7929 25.8103 12.6418 25.7069 12.541 25.6034C12.4403 25.5 12.3396 25.3448 12.2892 25.1896C12.2388 25.0344 12.1885 24.8793 12.1885 24.7241V20.9482C12.1885 20.1724 12.3396 19.3965 12.6418 18.6724C12.944 17.9482 13.3469 17.3275 13.8506 16.8103C14.3543 16.2931 14.9587 15.8793 15.6638 15.5689C16.369 15.2586 17.0741 15.1034 17.8296 15.1034C18.2326 15.1034 18.5348 15.2069 18.7866 15.4655C18.9881 15.7241 19.1392 15.9827 19.1392 16.3448C19.1392 16.5 19.0888 16.7069 19.0384 16.862C18.9881 17.0172 18.8873 17.1724 18.7362 17.2758C18.6355 17.3793 18.4844 17.4827 18.3333 17.5344C18.1822 17.5862 18.0311 17.6379 17.8296 17.6379C17.3763 17.6379 16.9734 17.7413 16.6208 17.8965C16.2179 18.0517 15.9157 18.3103 15.6135 18.5689C15.3112 18.8793 15.1098 19.1896 14.9083 19.6034C14.7572 20.0172 14.6565 20.431 14.6565 20.8965V24.7241Z" fill="#F8DC06"/>
<path d="M19.542 20.5345C19.542 19.7586 19.6931 19.0345 19.9953 18.3621C20.2975 17.6897 20.6501 17.1207 21.1537 16.6034C21.6574 16.0862 22.2115 15.7241 22.8662 15.4138C23.521 15.1034 24.2261 15 24.9817 15C25.7372 15 26.4423 15.1552 27.0971 15.4138C27.7519 15.7241 28.3059 16.0862 28.8096 16.6034C29.3132 17.1207 29.6658 17.6897 29.968 18.3621C30.2702 19.0345 30.371 19.7586 30.371 20.5345C30.371 21.3103 30.2199 22.0345 29.968 22.7069C29.6658 23.3793 29.3132 23.9483 28.8096 24.4655C28.3059 24.9828 27.7519 25.3448 27.0971 25.6552C26.4423 25.9655 25.7372 26.069 24.9817 26.069C24.2261 26.069 23.521 25.9138 22.8662 25.6552C22.2115 25.3448 21.6574 24.9828 21.1537 24.4655C20.6501 23.9483 20.2975 23.3793 19.9953 22.7069C19.6931 22.0345 19.542 21.3103 19.542 20.5345ZM22.01 20.5345C22.01 20.9483 22.1107 21.3103 22.2618 21.7241C22.4129 22.0862 22.6144 22.3966 22.9166 22.7069C23.1684 22.9655 23.521 23.2241 23.8736 23.3793C24.2261 23.5345 24.6291 23.6379 25.032 23.6379C25.435 23.6379 25.8379 23.5345 26.1905 23.3793C26.543 23.2241 26.8452 23.0172 27.1475 22.7069C27.3993 22.4483 27.6008 22.0862 27.7519 21.7241C27.903 21.3621 28.0037 20.9483 28.0037 20.5345C28.0037 20.1207 27.903 19.7069 27.7519 19.3448C27.6008 18.9828 27.3993 18.6724 27.1475 18.3621C26.8956 18.1034 26.5934 17.8966 26.1905 17.7414C25.8379 17.5862 25.435 17.4828 25.032 17.4828C24.6291 17.4828 24.2765 17.5862 23.8736 17.7414C23.521 17.8966 23.2188 18.1034 22.9166 18.3621C22.6648 18.6207 22.4129 18.931 22.2618 19.3448C22.0604 19.7069 22.01 20.1207 22.01 20.5345Z" fill="#F8DC06"/>
<path d="M33.3434 25.9655C33.0412 25.9138 32.739 25.8103 32.5376 25.5517C32.3361 25.3448 32.2354 25.0345 32.2354 24.6724V12.3103C32.2354 12.1551 32.2857 11.9482 32.3361 11.7931C32.3865 11.6379 32.4872 11.4827 32.5879 11.3793C32.6887 11.2758 32.8398 11.1724 32.9909 11.1207C33.142 11.0689 33.2931 11.0172 33.4945 11.0172H41.4526C41.6037 11.0172 41.8051 11.0689 41.9562 11.1207C42.1073 11.1724 42.2081 11.2758 42.3592 11.3793C42.4599 11.4827 42.5606 11.6379 42.611 11.7931C42.6614 11.9482 42.7117 12.1034 42.7117 12.3103C42.7117 12.4655 42.6614 12.6207 42.611 12.7758C42.5606 12.931 42.4599 13.0862 42.3592 13.1896C42.2584 13.2931 42.1073 13.3965 41.9562 13.4482C41.8051 13.5 41.654 13.5517 41.4526 13.5517H34.653V17.0689H39.8912C40.0423 17.0689 40.2437 17.1207 40.3948 17.1724C40.5459 17.2241 40.6467 17.3276 40.7978 17.431C40.8985 17.5345 40.9993 17.6896 41.0496 17.8448C41.1 18 41.1504 18.1551 41.1504 18.362C41.1504 18.5172 41.1 18.6724 41.0496 18.8276C40.9993 18.9827 40.8985 19.0862 40.7978 19.2414C40.6971 19.3448 40.5459 19.4482 40.3948 19.5C40.2437 19.5517 40.0926 19.6034 39.8912 19.6034H34.653V23.4827H41.3518C41.5029 23.4827 41.7044 23.5345 41.8555 23.5862C42.0066 23.6379 42.1073 23.7414 42.2584 23.8448C42.3592 23.9482 42.4599 24.1034 42.5103 24.2586C42.5606 24.4138 42.611 24.5689 42.611 24.7758C42.611 25.1379 42.5103 25.4482 42.2584 25.6551C42.0066 25.862 41.7548 26.0172 41.4022 26.0172H33.3434V25.9655Z" fill="#308E45"/>
<path d="M46.6906 24.7241C46.6906 25.0862 46.5899 25.3448 46.3381 25.6034C46.0862 25.862 45.8344 25.9655 45.4818 25.9655C45.3307 25.9655 45.1796 25.9138 45.0285 25.862C44.8774 25.8103 44.7263 25.7069 44.6256 25.6034C44.5249 25.5 44.4241 25.3448 44.3234 25.1896C44.273 25.0345 44.2227 24.8793 44.2227 24.7241V19.2414C44.2227 18.6724 44.3234 18.1034 44.5752 17.5862C44.7767 17.0689 45.0789 16.6034 45.4818 16.2414C45.8848 15.8793 46.3381 15.5689 46.8418 15.3103C47.3454 15.1034 47.8995 14.9483 48.4535 14.9483C49.0579 14.9483 49.612 15.0517 50.1156 15.3103C50.6193 15.5172 51.0726 15.8793 51.4755 16.2414C51.8785 15.8276 52.3318 15.5172 52.8355 15.3103C53.3391 15.0517 53.8932 14.9483 54.4976 14.9483C55.0516 14.9483 55.6057 15.0517 56.1093 15.2586C56.613 15.4655 57.0663 15.7758 57.4189 16.1379C57.8218 16.5 58.0737 16.9655 58.3255 17.4827C58.5773 18 58.6781 18.5172 58.6781 19.0862V19.1379V19.1896V24.6724C58.6781 24.8276 58.6277 24.9827 58.5773 25.1379C58.527 25.2931 58.4262 25.3965 58.3255 25.5517C58.2248 25.6552 58.0737 25.7586 57.9225 25.8103C57.7714 25.8621 57.6203 25.9138 57.4692 25.9138C57.3181 25.9138 57.167 25.8621 56.9656 25.8103C56.8145 25.7586 56.6634 25.6552 56.5626 25.5517C56.4619 25.4483 56.3612 25.2931 56.3108 25.1379C56.2604 24.9827 56.2101 24.8276 56.2101 24.6724V19.2414C56.2101 18.9827 56.1597 18.7758 56.059 18.5689C55.9582 18.3621 55.8071 18.1552 55.656 18.0517C55.5049 17.8965 55.3035 17.7931 55.102 17.6896C54.9005 17.5862 54.6487 17.5862 54.4472 17.5862C54.1954 17.5862 53.9939 17.6379 53.7421 17.7414C53.5406 17.8448 53.3391 17.9483 53.188 18.1034C53.0369 18.2586 52.8858 18.4655 52.7851 18.6724C52.6844 18.8793 52.634 19.1379 52.634 19.3448V24.7758C52.634 25.1379 52.5333 25.3965 52.2814 25.6552C52.0296 25.9138 51.7777 26.0172 51.4252 26.0172C51.2741 26.0172 51.123 25.9655 50.9719 25.9138C50.8208 25.862 50.6697 25.7586 50.5689 25.6552C50.4682 25.5517 50.3675 25.3965 50.2667 25.2414C50.2164 25.0862 50.166 24.931 50.166 24.7758V19.2414C50.166 18.9827 50.1156 18.7758 50.0149 18.5689C49.9142 18.3621 49.8134 18.1552 49.612 18C49.4608 17.8448 49.2594 17.7414 49.0579 17.6379C48.8564 17.5345 48.6046 17.5345 48.3528 17.5345C48.1009 17.5345 47.8995 17.5862 47.6476 17.6896C47.4462 17.7931 47.2447 17.8965 47.0936 18.0517C46.9425 18.2069 46.7914 18.4138 46.6906 18.6207C46.5899 18.8276 46.5395 19.0345 46.5395 19.2931V24.7241H46.6906Z" fill="#308E45"/>
<path d="M60.6422 20.5345C60.6422 19.7586 60.7933 19.0345 61.0955 18.3621C61.3977 17.6897 61.7502 17.1207 62.2539 16.6034C62.7576 16.0862 63.3116 15.7241 63.9664 15.4138C64.6212 15.1034 65.3263 15 66.0818 15C66.8373 15 67.5425 15.1552 68.1973 15.4138C68.852 15.7241 69.4061 16.0862 69.9097 16.6034C70.4134 17.1207 70.766 17.6897 71.0682 18.3621C71.3704 19.0345 71.4711 19.7586 71.4711 20.5345C71.4711 21.3103 71.32 22.0345 71.0682 22.7069C70.766 23.3793 70.4134 23.9483 69.9097 24.4655C69.4061 24.9828 68.852 25.3448 68.1973 25.6552C67.5425 25.9655 66.8373 26.069 66.0818 26.069C65.5278 26.069 65.0241 25.9655 64.5204 25.8103C64.0168 25.6552 63.5635 25.4483 63.1102 25.1379V28.5C63.1102 28.7069 63.0598 28.8621 63.0094 29.0172C62.9591 29.1724 62.8583 29.3276 62.7576 29.431C62.6569 29.5345 62.5058 29.6379 62.3547 29.6897C62.2036 29.7414 62.0524 29.7931 61.851 29.7931C61.6999 29.7931 61.4984 29.7414 61.3473 29.6897C61.1962 29.6379 61.0451 29.5345 60.9444 29.431C60.8436 29.3276 60.7429 29.1724 60.6925 29.0172C60.6422 28.8621 60.5918 28.7069 60.5918 28.5V20.5345H60.6422ZM63.1102 20.5345C63.1102 20.9483 63.2109 21.3103 63.362 21.7241C63.5131 22.0862 63.7146 22.3966 64.0168 22.7069C64.2686 22.9655 64.6212 23.2241 64.9737 23.3793C65.3263 23.5345 65.7293 23.6379 66.1322 23.6379C66.5351 23.6379 66.9381 23.5345 67.2906 23.3793C67.6432 23.2241 67.9454 23.0172 68.2476 22.7069C68.4995 22.4483 68.7009 22.0862 68.852 21.7241C69.0031 21.3621 69.1039 20.9483 69.1039 20.5345C69.1039 20.1207 69.0031 19.7069 68.852 19.3448C68.7009 18.9828 68.4995 18.6724 68.2476 18.3621C67.9958 18.1034 67.6936 17.8966 67.2906 17.7414C66.9381 17.5862 66.5351 17.4828 66.1322 17.4828C65.7293 17.4828 65.3767 17.5862 64.9737 17.7414C64.6212 17.8966 64.319 18.1034 64.0168 18.3621C63.7649 18.6207 63.5131 18.931 63.362 19.3448C63.2109 19.7069 63.1102 20.1207 63.1102 20.5345Z" fill="#308E45"/>
<path d="M75.3996 24.7241C75.3996 24.8793 75.3493 25.0344 75.2989 25.1896C75.2485 25.3448 75.1478 25.5 75.0471 25.6034C74.9463 25.7069 74.7952 25.8103 74.6441 25.862C74.493 25.9138 74.3419 25.9655 74.1908 25.9655C74.0397 25.9655 73.8383 25.9138 73.6871 25.862C73.536 25.8103 73.3849 25.7069 73.2842 25.6034C73.1835 25.5 73.0827 25.3448 73.0324 25.1896C72.982 25.0344 72.9316 24.8793 72.9316 24.7241V20.9482C72.9316 20.1724 73.0827 19.3965 73.3849 18.6724C73.6871 17.9482 74.0901 17.3275 74.5938 16.8103C75.0974 16.2931 75.7018 15.8793 76.407 15.5689C77.1121 15.2586 77.8173 15.1034 78.5728 15.1034C78.9757 15.1034 79.2779 15.2069 79.5297 15.4655C79.7312 15.7241 79.8823 15.9827 79.8823 16.3448C79.8823 16.5 79.8319 16.7069 79.7816 16.862C79.7312 17.0172 79.6305 17.1724 79.4794 17.2758C79.3786 17.3793 79.2275 17.4827 79.0764 17.5344C78.9253 17.5862 78.7742 17.6379 78.5728 17.6379C78.1195 17.6379 77.7165 17.7413 77.364 17.8965C76.961 18.0517 76.6588 18.3103 76.3566 18.5689C76.0544 18.8793 75.8529 19.1896 75.6515 19.6034C75.5004 20.0172 75.3996 20.431 75.3996 20.8965V24.7241Z" fill="#308E45"/>
<path d="M83.0559 21.6724C83.1566 21.9828 83.3078 22.2414 83.4589 22.4483C83.6603 22.7069 83.8618 22.8621 84.0633 23.069C84.3151 23.2241 84.5669 23.3793 84.8188 23.431C85.121 23.5345 85.3728 23.5862 85.7254 23.5862C86.4809 23.5862 87.1357 23.3793 87.5386 22.9655C87.6897 22.8621 87.8408 22.7586 87.9919 22.7069C88.143 22.6552 88.2941 22.6552 88.3948 22.6552C88.5963 22.6552 88.7978 22.7069 88.9489 22.8103C89.1 22.9138 89.2511 23.069 89.3518 23.2241C89.4022 23.3276 89.5029 23.4828 89.5029 23.6379C89.5533 23.7931 89.5533 23.9483 89.5029 24.0517C89.5029 24.2069 89.4526 24.3621 89.3518 24.4655C89.3015 24.6207 89.1504 24.7241 89.0496 24.8793C88.8985 25.0345 88.6971 25.1897 88.4956 25.3448C88.2941 25.5 88.0423 25.6035 87.7401 25.7069C87.4882 25.8103 87.1357 25.9138 86.8335 25.9655C86.4809 26.0172 86.078 26.069 85.675 26.069C84.9195 26.069 84.2144 25.9138 83.5596 25.6552C82.9048 25.3966 82.3508 24.9828 81.8471 24.4655C81.3434 23.9483 80.9909 23.3793 80.6887 22.7069C80.3865 22.0345 80.2354 21.3103 80.2354 20.5345C80.2354 19.7586 80.3865 19.0345 80.6887 18.3621C80.9909 17.6897 81.3434 17.1207 81.8471 16.6034C82.3508 16.0862 82.9048 15.7241 83.5596 15.4138C84.2144 15.1034 84.9195 15 85.675 15C86.4305 15 87.1357 15.1552 87.7904 15.4138C88.4452 15.7241 88.9993 16.0862 89.5029 16.6034C90.0066 17.1207 90.4095 17.6897 90.6614 18.3621C90.9636 19.0345 91.1147 19.7586 91.1147 20.4828C91.1147 20.8448 91.0139 21.1034 90.7621 21.3621C90.5606 21.569 90.2584 21.6724 89.9059 21.6724H83.0559ZM88.6467 19.6034C88.5459 19.2931 88.4452 18.9828 88.2437 18.7241C88.0423 18.4655 87.8408 18.2586 87.589 18.0517C87.3371 17.8966 87.0349 17.7414 86.7327 17.6379C86.4305 17.5345 86.078 17.4828 85.7254 17.4828C85.3728 17.4828 85.0706 17.5345 84.7684 17.6379C84.4662 17.7414 84.164 17.8966 83.9625 18.0517C83.7107 18.2586 83.5092 18.4655 83.3581 18.7241C83.207 18.9828 83.0559 19.2414 82.9552 19.5517H88.6467V19.6034Z" fill="#308E45"/>
<path d="M95.2955 21.4138C94.9933 21.2586 94.6407 21.1034 94.2882 20.9483C93.9356 20.7931 93.6334 20.5862 93.3312 20.3276C93.029 20.0689 92.8275 19.8103 92.626 19.4483C92.4246 19.0862 92.3238 18.7241 92.3238 18.2069C92.3238 17.7414 92.4246 17.2758 92.626 16.862C92.8275 16.4483 93.0793 16.1379 93.4319 15.8276C93.7845 15.5689 94.1874 15.3103 94.6407 15.1552C95.094 15 95.5977 14.9483 96.1517 14.9483C96.4539 14.9483 96.8065 14.9483 97.1591 15C97.5117 15.0517 97.8139 15.1552 98.1161 15.2586C98.4183 15.3621 98.7205 15.5172 98.9219 15.7241C99.1738 15.931 99.3249 16.1379 99.476 16.3965C99.5767 16.6552 99.6271 16.9138 99.5767 17.1207C99.5264 17.3793 99.476 17.5862 99.3249 17.7414C99.2241 17.8448 99.073 17.9483 98.9723 18.0517C98.8212 18.1034 98.6701 18.1552 98.519 18.1552C98.4183 18.1552 98.2672 18.1034 98.1161 18.0517C97.965 17.9483 97.8139 17.8448 97.6628 17.7931C97.5117 17.6896 97.4109 17.6379 97.2598 17.5862C97.1087 17.5345 96.9576 17.4827 96.8065 17.4827C96.6554 17.431 96.4539 17.431 96.3028 17.431C95.7992 17.431 95.4466 17.4827 95.1948 17.6379C94.9429 17.7931 94.7918 18 94.7918 18.2586C94.7918 18.4138 94.8422 18.5172 94.9429 18.6207C95.0437 18.7241 95.1444 18.8276 95.3459 18.8793C95.497 18.9827 95.6984 19.0345 95.9503 19.0862C96.2021 19.1379 96.454 19.2414 96.7058 19.2931C97.1591 19.4483 97.562 19.6034 97.965 19.7586C98.3679 19.9655 98.7205 20.1724 99.0227 20.431C99.3249 20.6896 99.5767 21 99.7782 21.362C99.9797 21.7241 100.03 22.1379 100.03 22.6552C100.03 23.1207 99.9293 23.5345 99.7278 23.9483C99.5264 24.362 99.2745 24.7241 98.9219 25.0345C98.5694 25.3448 98.1664 25.5517 97.7131 25.7586C97.2598 25.9138 96.7058 26.0172 96.1517 26.0172C95.7992 26.0172 95.4466 25.9655 95.0437 25.9138C94.6407 25.862 94.2882 25.7586 93.8852 25.5517C93.5326 25.3965 93.1801 25.1896 92.8779 24.931C92.5757 24.6724 92.3238 24.3621 92.1224 24C91.9713 23.7414 91.9209 23.4827 91.9209 23.2758C91.9209 23.0689 91.9713 22.8621 92.072 22.7069C92.1727 22.5517 92.3238 22.3965 92.4749 22.2931C92.626 22.1896 92.8275 22.1379 93.029 22.1379C93.2304 22.1379 93.3816 22.1896 93.583 22.2414C93.7845 22.3448 93.986 22.4483 94.1874 22.6552C94.2882 22.7586 94.3889 22.8621 94.54 22.9655C94.6911 23.0689 94.8422 23.1724 94.9933 23.2241C95.1444 23.3276 95.3459 23.3793 95.5473 23.431C95.7488 23.4827 95.9503 23.4827 96.1517 23.4827C96.3532 23.4827 96.5043 23.4827 96.7058 23.431C96.8569 23.3793 97.008 23.3276 97.1591 23.2758C97.3102 23.1724 97.4109 23.1207 97.4613 23.0172C97.562 22.9138 97.562 22.8103 97.562 22.6552C97.562 22.5 97.4613 22.3448 97.3102 22.1896C97.1591 22.0345 96.9576 21.931 96.7058 21.8276C96.454 21.7241 96.2021 21.6207 95.9503 21.5172C95.6984 21.5689 95.4466 21.4655 95.2955 21.4138Z" fill="#308E45"/>
<path d="M101.238 20.5345C101.238 19.7586 101.389 19.0345 101.692 18.3621C101.994 17.6897 102.346 17.1207 102.85 16.6034C103.354 16.0862 103.908 15.7241 104.563 15.4138C105.217 15.1034 105.922 15 106.678 15C107.433 15 108.139 15.1552 108.793 15.4138C109.448 15.6724 110.002 16.0862 110.506 16.6034C111.01 17.1207 111.362 17.6897 111.664 18.3621C111.967 19.0345 112.067 19.7586 112.067 20.5345V24.6724C112.067 24.8276 112.017 25.0345 111.967 25.1897C111.916 25.3448 111.815 25.5 111.715 25.6034C111.614 25.7069 111.463 25.8103 111.312 25.8621C111.161 25.9138 111.01 25.9655 110.808 25.9655C110.506 25.9655 110.254 25.8621 110.053 25.7069C109.851 25.5517 109.7 25.2931 109.65 25.0345C109.196 25.3448 108.743 25.6552 108.239 25.8103C107.736 26.0172 107.232 26.1207 106.678 26.1207C105.922 26.1207 105.217 25.9655 104.563 25.7069C103.908 25.3966 103.354 25.0345 102.85 24.5172C102.346 24 101.994 23.431 101.692 22.7586C101.389 22.0345 101.238 21.3103 101.238 20.5345ZM103.706 20.5345C103.706 20.9483 103.807 21.3103 103.958 21.7241C104.109 22.0862 104.311 22.3966 104.613 22.7069C104.865 22.9655 105.217 23.2241 105.57 23.3793C105.922 23.5345 106.325 23.6379 106.728 23.6379C107.131 23.6379 107.534 23.5345 107.887 23.3793C108.239 23.2241 108.542 23.0172 108.844 22.7069C109.096 22.4483 109.297 22.0862 109.448 21.7241C109.599 21.3621 109.65 20.9483 109.65 20.5345C109.65 20.1207 109.549 19.7069 109.448 19.3448C109.297 18.9828 109.096 18.6724 108.844 18.3621C108.592 18.1034 108.29 17.8966 107.887 17.7414C107.534 17.5862 107.131 17.4828 106.728 17.4828C106.325 17.4828 105.922 17.5862 105.57 17.7414C105.217 17.8966 104.915 18.1034 104.613 18.3621C104.361 18.6207 104.109 18.931 103.958 19.3448C103.807 19.7069 103.706 20.1207 103.706 20.5345Z" fill="#308E45"/>
<path d="M143.849 13.5517C143.597 13.2414 143.194 13.1379 142.942 13.3448L133.02 20.5345C132.768 20.6379 132.416 20.5345 132.214 20.2759C132.013 19.9655 132.013 19.5517 132.315 19.3448L137.805 15.3104L142.942 11.5862C143.194 11.3793 143.245 10.9655 143.043 10.6552C142.842 10.3448 142.388 10.2414 142.137 10.4483L132.466 17.4828C132.214 17.5862 131.912 17.4828 131.711 17.2242C131.509 16.9138 131.509 16.5 131.811 16.2931L132.466 15.8276C132.466 15.8276 132.516 15.8276 132.516 15.7759L142.388 8.58622C142.64 8.37933 142.691 7.96553 142.489 7.65519C142.288 7.34484 141.885 7.24139 141.633 7.44829L135.841 11.6379L132.365 14.1724C132.113 14.3793 131.711 14.2759 131.509 13.9655C131.308 13.6552 131.308 13.2414 131.61 13.0345L135.186 10.3966C134.33 8.89657 133.524 7.44829 132.718 5.94829C132.416 5.37933 132.113 4.75864 131.358 4.75864C130.552 4.75864 130.3 5.37933 129.948 5.94829C127.883 9.62071 125.818 13.2931 123.752 16.9655C122.846 18.569 121.939 20.1724 121.083 21.7759C120.882 22.1897 120.781 22.5517 120.831 22.8621C120.831 22.9655 120.831 23.069 120.932 23.1724C121.083 23.3276 121.234 23.5345 121.436 23.6897L130.451 29.4828C130.602 29.5862 131.156 29.9483 131.811 29.9483C132.214 29.9483 132.919 29.6897 133.222 29.431L137.201 26.6897C137.201 26.6897 140.424 24.4655 141.431 23.4828C141.482 23.431 141.532 23.3793 141.583 23.3276C141.583 23.3276 141.583 23.3276 141.633 23.2759C141.784 23.1207 141.834 22.9655 141.834 22.8104C141.885 22.6035 141.834 22.3966 141.734 22.1379C141.583 21.7759 141.431 21.4655 141.23 21.1552C140.827 20.4311 140.424 19.7069 139.971 18.931L133.624 23.5862C133.373 23.7931 132.97 23.6897 132.768 23.3793C132.567 23.069 132.567 22.6552 132.869 22.4483L133.473 21.9828L143.748 14.4828C144.051 14.2759 144.101 13.8621 143.849 13.5517Z" fill="#308E45"/>
</svg>
